<svg width="3974" height="812" viewBox="0 0 3974 812" fill="none" xmlns="http://www.w3.org/2000/svg">
    <path d="M717.24 0.0078125C769.688 0.67197 812 43.3948 812 96V716L811.992 717.24C811.333 769.275 769.275 811.333 717.24 811.992L716 812H96L94.7588 811.992C42.7244 811.333 0.666751 769.275 0.0078125 717.24L0 716V96C0 43.395 42.3115 0.672367 94.7588 0.0078125L96 0H716L717.24 0.0078125ZM96 21C54.5786 21 21 54.5787 21 96V716C21.0001 757.421 54.5787 791 96 791H202.831C202.066 784.573 201.672 778.032 201.672 771.399C201.672 709.007 236.474 654.742 287.724 626.958L346.817 593.284C346.872 593.349 346.928 593.412 346.982 593.477C322.638 564.836 307.948 527.733 307.948 487.199C307.948 447.625 321.95 411.322 345.269 382.971C339.481 383.588 333.603 383.908 327.651 383.908C236.971 383.908 163.46 310.397 163.46 219.717C163.46 156.449 199.246 101.539 251.68 74.123L302.406 45.208L320.785 55.6689H320.787L259.873 21H96ZM365.863 632.285C289.033 632.285 226.749 694.569 226.749 771.399C226.749 778.052 227.217 784.596 228.121 791H503.605C504.509 784.596 504.978 778.052 504.978 771.399C504.977 694.569 442.694 632.285 365.863 632.285ZM510.339 693.327C522.913 716.547 530.055 743.139 530.055 771.399C530.055 778.032 529.66 784.573 528.896 791H612.812L647.684 771.175L510.339 693.327ZM663.571 791H682.659L673.101 785.582L663.571 791ZM556.201 628.266C535.198 640.808 511.161 648.793 485.451 650.855L730.567 789.584C765.016 782.803 791 752.437 791 716V494.499L556.201 628.266ZM472.14 348.085C395.309 348.085 333.026 410.369 333.025 487.199C333.025 564.03 395.309 626.314 472.14 626.314C548.971 626.314 611.255 564.03 611.255 487.199C611.255 410.369 548.97 348.085 472.14 348.085ZM478.108 323.116C566.024 326.258 636.331 398.517 636.331 487.199C636.331 515.281 629.278 541.716 616.852 564.831L791 465.627V145.034L478.108 323.116ZM327.651 80.6025C250.821 80.6026 188.537 142.886 188.536 219.717C188.536 296.548 250.821 358.832 327.651 358.832C404.482 358.832 466.766 296.548 466.766 219.717C466.765 142.886 404.482 80.6026 327.651 80.6025ZM405.757 75.2588C457.025 103.037 491.843 157.311 491.843 219.717C491.843 247.906 484.736 274.435 472.221 297.613L791 116.181V96C791 54.5787 757.421 21.0001 716 21H310.454L405.757 75.2588Z" fill="black"/>
    <path d="M3581.57 195.326H3776.2C3842.84 195.326 3892.49 205.036 3925.15 224.454C3957.81 243.432 3974.14 277.635 3974.14 327.064C3974.14 381.79 3954.28 419.524 3914.56 440.266C3877.49 459.244 3825.63 468.732 3758.99 468.732H3753.69V646.148H3836.44V658.726H3581.57V646.148H3624.6V207.904H3581.57V195.326ZM3753.69 207.904V456.154H3767.59C3794.07 456.154 3812.39 447.107 3822.54 429.012C3832.69 410.918 3837.77 381.569 3837.77 340.966V309.19C3837.77 271.677 3832.91 245.418 3823.2 230.412C3813.93 215.407 3796.72 207.904 3771.57 207.904H3753.69Z" fill="black"/>
    <path d="M3180.63 525.002L3235.58 334.346L3195.86 207.904H3158.13V195.326H3363.35V207.904H3324.29L3422.93 521.03L3502.37 207.904H3435.5V195.326H3567.9V207.904H3524.21L3402.4 665.346H3343.49L3245.51 366.122L3159.45 665.346H3101.86L2935.03 207.904H2903.92V195.326H3119.07V207.904H3072.73L3180.63 525.002Z" fill="black"/>
    <path d="M2679.13 564.06V355.53H2642.72V343.614H2679.13V258.216L2802.26 227.764V343.614H2888.32V355.53H2802.26V578.624C2802.26 599.367 2804.25 614.593 2808.22 624.302C2812.64 634.011 2821.46 638.866 2834.7 638.866C2847.94 638.866 2859.42 632.246 2869.13 619.006C2879.28 605.766 2885.9 587.671 2888.99 564.722L2900.24 566.046C2896.71 596.498 2887 620.772 2871.11 638.866C2855.22 656.52 2828.96 665.346 2792.33 665.346C2755.7 665.346 2727.68 658.064 2708.26 643.5C2688.84 628.936 2679.13 602.456 2679.13 564.06Z" fill="black"/>
    <path d="M2478.79 665.346C2421.86 665.346 2379.05 650.782 2350.37 621.654C2322.12 592.085 2308 551.262 2308 499.184C2308 446.666 2323.89 406.504 2355.66 378.7C2387.88 350.896 2428.7 336.994 2478.13 336.994C2578.32 336.994 2626.42 387.306 2622.45 487.93H2435.76V513.748C2435.76 556.999 2441.28 589.657 2452.31 611.724C2463.35 633.791 2482.55 644.824 2509.91 644.824C2561.1 644.824 2594.64 617.462 2610.53 562.736L2622.45 564.722C2614.06 596.498 2598.84 621.213 2576.77 638.866C2555.15 656.52 2522.49 665.346 2478.79 665.346ZM2436.43 474.69H2504.61V442.252C2504.61 406.504 2502.41 382.231 2497.99 369.432C2494.02 356.192 2485.64 349.572 2472.84 349.572C2460.48 349.572 2451.21 356.633 2445.03 370.756C2439.3 384.437 2436.43 408.269 2436.43 442.252V474.69Z" fill="black"/>
    <path d="M2032.88 665.346V546.848H2040.82C2052.29 585.244 2067.74 612.165 2087.16 627.612C2106.58 643.059 2130.85 650.782 2159.98 650.782C2205 650.782 2227.5 636.439 2227.5 607.752C2227.5 595.395 2221.99 586.127 2210.95 579.948C2193.74 570.239 2171.67 562.736 2144.75 557.44C2114.74 549.496 2089.59 538.904 2069.29 525.664C2045.01 509.776 2032.88 484.62 2032.88 450.196C2032.88 415.772 2043.47 388.409 2064.65 368.108C2085.84 347.365 2114.08 336.994 2149.39 336.994C2171.01 336.994 2193.3 342.069 2216.25 352.22C2224.63 355.751 2231.03 357.516 2235.45 357.516C2239.86 357.516 2243.61 355.971 2246.7 352.882C2249.79 349.793 2253.54 344.055 2257.96 335.67H2265.24V436.956H2257.29C2234.79 379.583 2199.92 350.896 2152.7 350.896C2131.95 350.896 2116.51 354.647 2106.36 362.15C2096.21 369.211 2091.13 378.259 2091.13 389.292C2091.13 395.912 2092.68 401.208 2095.77 405.18C2098.85 408.711 2101.28 411.359 2103.05 413.124C2104.81 414.889 2107.68 416.875 2111.65 419.082C2115.63 420.847 2118.94 422.392 2121.58 423.716C2124.23 424.599 2128.2 425.923 2133.5 427.688C2139.24 429.453 2143.43 430.557 2146.08 430.998C2176.09 438.501 2197.71 445.121 2210.95 450.858C2224.19 456.154 2236.77 462.774 2248.69 470.718C2272.96 487.489 2285.1 514.631 2285.1 552.144C2285.1 589.216 2274.06 617.461 2252 636.88C2229.93 655.857 2199.7 665.346 2161.3 665.346C2133.94 665.346 2107.46 658.947 2081.86 646.148C2076.57 642.617 2072.37 640.852 2069.29 640.852C2059.58 640.852 2050.09 649.017 2040.82 665.346H2032.88Z" fill="black"/>
    <path d="M1996.37 182.086C1996.37 166.198 1987.98 158.254 1971.21 158.254C1954.44 158.254 1943.41 164.653 1938.11 177.452C1932.82 189.809 1930.17 209.89 1930.17 237.694V343.614H2017.55V355.53H1930.17V646.81H2010.93V658.726H1770.63V646.81H1807.04V355.53H1712.37V646.81H1745.47V658.726H1552.83V646.81H1589.24V355.53H1550.84V343.614H1589.24V342.29C1589.24 222.247 1641.98 162.226 1747.46 162.226C1792.03 162.226 1822.92 176.569 1840.14 205.256C1868.38 166.419 1910.09 147 1965.25 147C2002.77 147 2029.69 154.503 2046.02 169.508C2062.35 184.072 2070.51 201.063 2070.51 220.482C2070.51 239.901 2065.44 254.465 2055.29 264.174C2045.13 273.883 2031.67 278.738 2014.9 278.738C1998.13 278.738 1985.11 274.545 1975.85 266.16C1967.02 257.333 1962.61 247.403 1962.61 236.37C1962.61 224.895 1963.93 213.862 1966.58 203.27H1991.73C1994.82 195.767 1996.37 188.706 1996.37 182.086ZM1778.57 197.312C1778.57 181.424 1770.18 173.48 1753.41 173.48C1736.64 173.48 1725.61 179.879 1720.31 192.678C1715.02 205.035 1712.37 225.116 1712.37 252.92V343.614H1807.04V340.966L1817.63 286.682C1811.89 291.537 1802.62 293.964 1789.82 293.964C1777.02 293.964 1766.21 289.771 1757.39 281.386C1749 272.559 1744.81 262.629 1744.81 251.596C1744.81 240.121 1746.13 229.088 1748.78 218.496H1773.94C1777.02 210.993 1778.57 203.932 1778.57 197.312Z" fill="black"/>
    <path d="M1382.66 454.168V405.18C1382.66 324.416 1378.69 273.442 1370.75 252.258C1361.92 227.985 1349.34 212.979 1333.01 207.242C1323.74 203.711 1312.49 201.946 1299.25 201.946C1286.01 201.946 1274.54 203.711 1264.83 207.242C1255.56 210.773 1247.83 216.951 1241.66 225.778C1235.48 234.605 1230.4 243.873 1226.43 253.582C1222.9 263.291 1220.03 276.973 1217.82 294.626C1215.18 320.223 1213.85 357.957 1213.85 407.828V455.492C1213.85 509.335 1215.84 547.731 1219.81 570.68C1224.22 593.188 1229.52 609.297 1235.7 619.006C1249.38 640.631 1270.56 651.444 1299.25 651.444C1334.12 651.444 1356.62 636.88 1366.77 607.752C1377.37 578.183 1382.66 526.988 1382.66 454.168ZM1297.93 665.346C1224.22 665.346 1169.06 645.486 1132.43 605.766C1096.24 565.605 1078.14 507.79 1078.14 432.322C1078.14 356.413 1097.56 296.833 1136.4 253.582C1175.68 209.89 1231.06 188.044 1302.56 188.044C1374.06 188.044 1427.9 208.787 1464.09 250.272C1500.72 291.316 1519.03 349.793 1519.03 425.702C1519.03 501.611 1500.5 560.529 1463.43 602.456C1426.8 644.383 1371.63 665.346 1297.93 665.346Z" fill="black"/>
</svg>
