<svg width="3974" height="812" viewBox="0 0 3974 812" fill="none" xmlns="http://www.w3.org/2000/svg">
    <path d="M3581.57 195.6H3776.2C3842.84 195.6 3892.49 205.309 3925.15 224.728C3957.81 243.705 3974.14 277.909 3974.14 327.338C3974.14 382.063 3954.28 419.797 3914.56 440.54C3877.49 459.517 3825.63 469.006 3758.99 469.006H3753.69V646.422H3836.44V659H3581.57V646.422H3624.6V208.178H3581.57V195.6ZM3753.69 208.178V456.428H3767.59C3794.07 456.428 3812.39 447.381 3822.54 429.286C3832.69 411.191 3837.77 381.843 3837.77 341.24V309.464C3837.77 271.951 3832.91 245.691 3823.2 230.686C3813.93 215.681 3796.72 208.178 3771.57 208.178H3753.69Z" fill="#0BB14B"/>
    <path d="M3180.63 525.276L3235.58 334.62L3195.86 208.178H3158.13V195.6H3363.35V208.178H3324.29L3422.93 521.304L3502.37 208.178H3435.5V195.6H3567.9V208.178H3524.21L3402.4 665.62H3343.49L3245.51 366.396L3159.45 665.62H3101.86L2935.03 208.178H2903.92V195.6H3119.07V208.178H3072.73L3180.63 525.276Z" fill="#0BB14B"/>
    <path d="M2679.13 564.334V355.804H2642.72V343.888H2679.13V258.49L2802.26 228.038V343.888H2888.32V355.804H2802.26V578.898C2802.26 599.641 2804.25 614.867 2808.22 624.576C2812.64 634.285 2821.46 639.14 2834.7 639.14C2847.94 639.14 2859.42 632.52 2869.13 619.28C2879.28 606.04 2885.9 587.945 2888.99 564.996L2900.24 566.32C2896.71 596.772 2887 621.045 2871.11 639.14C2855.22 656.793 2828.96 665.62 2792.33 665.62C2755.7 665.62 2727.68 658.338 2708.26 643.774C2688.84 629.21 2679.13 602.73 2679.13 564.334Z" fill="#0BB14B"/>
    <path d="M2478.79 665.62C2421.86 665.62 2379.05 651.056 2350.37 621.928C2322.12 592.359 2308 551.535 2308 499.458C2308 446.939 2323.89 406.778 2355.66 378.974C2387.88 351.17 2428.7 337.268 2478.13 337.268C2578.32 337.268 2626.42 387.58 2622.45 488.204H2435.76V514.022C2435.76 557.273 2441.28 589.931 2452.31 611.998C2463.35 634.065 2482.55 645.098 2509.91 645.098C2561.1 645.098 2594.64 617.735 2610.53 563.01L2622.45 564.996C2614.06 596.772 2598.84 621.487 2576.77 639.14C2555.15 656.793 2522.49 665.62 2478.79 665.62ZM2436.43 474.964H2504.61V442.526C2504.61 406.778 2502.41 382.505 2497.99 369.706C2494.02 356.466 2485.64 349.846 2472.84 349.846C2460.48 349.846 2451.21 356.907 2445.03 371.03C2439.3 384.711 2436.43 408.543 2436.43 442.526V474.964Z" fill="#0BB14B"/>
    <path d="M2032.88 665.62V547.122H2040.82C2052.29 585.518 2067.74 612.439 2087.16 627.886C2106.58 643.333 2130.85 651.056 2159.98 651.056C2205 651.056 2227.5 636.713 2227.5 608.026C2227.5 595.669 2221.99 586.401 2210.95 580.222C2193.74 570.513 2171.67 563.01 2144.75 557.714C2114.74 549.77 2089.59 539.178 2069.29 525.938C2045.01 510.05 2032.88 484.894 2032.88 450.47C2032.88 416.046 2043.47 388.683 2064.65 368.382C2085.84 347.639 2114.08 337.268 2149.39 337.268C2171.01 337.268 2193.3 342.343 2216.25 352.494C2224.63 356.025 2231.03 357.79 2235.45 357.79C2239.86 357.79 2243.61 356.245 2246.7 353.156C2249.79 350.067 2253.54 344.329 2257.96 335.944H2265.24V437.23H2257.29C2234.79 379.857 2199.92 351.17 2152.7 351.17C2131.95 351.17 2116.51 354.921 2106.36 362.424C2096.21 369.485 2091.13 378.533 2091.13 389.566C2091.13 396.186 2092.68 401.482 2095.77 405.454C2098.85 408.985 2101.28 411.633 2103.05 413.398C2104.81 415.163 2107.68 417.149 2111.65 419.356C2115.63 421.121 2118.94 422.666 2121.58 423.99C2124.23 424.873 2128.2 426.197 2133.5 427.962C2139.24 429.727 2143.43 430.831 2146.08 431.272C2176.09 438.775 2197.71 445.395 2210.95 451.132C2224.19 456.428 2236.77 463.048 2248.69 470.992C2272.96 487.763 2285.1 514.905 2285.1 552.418C2285.1 589.49 2274.06 617.735 2252 637.154C2229.93 656.131 2199.7 665.62 2161.3 665.62C2133.94 665.62 2107.46 659.221 2081.86 646.422C2076.57 642.891 2072.37 641.126 2069.29 641.126C2059.58 641.126 2050.09 649.291 2040.82 665.62H2032.88Z" fill="#0BB14B"/>
    <path d="M1996.37 182.36C1996.37 166.472 1987.98 158.528 1971.21 158.528C1954.44 158.528 1943.41 164.927 1938.11 177.726C1932.82 190.083 1930.17 210.164 1930.17 237.968V343.888H2017.55V355.804H1930.17V647.084H2010.93V659H1770.63V647.084H1807.04V355.804H1712.37V647.084H1745.47V659H1552.83V647.084H1589.24V355.804H1550.84V343.888H1589.24V342.564C1589.24 222.521 1641.98 162.5 1747.46 162.5C1792.03 162.5 1822.92 176.843 1840.14 205.53C1868.38 166.693 1910.09 147.274 1965.25 147.274C2002.77 147.274 2029.69 154.777 2046.02 169.782C2062.35 184.346 2070.51 201.337 2070.51 220.756C2070.51 240.175 2065.44 254.739 2055.29 264.448C2045.13 274.157 2031.67 279.012 2014.9 279.012C1998.13 279.012 1985.11 274.819 1975.85 266.434C1967.02 257.607 1962.61 247.677 1962.61 236.644C1962.61 225.169 1963.93 214.136 1966.58 203.544H1991.73C1994.82 196.041 1996.37 188.98 1996.37 182.36ZM1778.57 197.586C1778.57 181.698 1770.18 173.754 1753.41 173.754C1736.64 173.754 1725.61 180.153 1720.31 192.952C1715.02 205.309 1712.37 225.39 1712.37 253.194V343.888H1807.04V341.24L1817.63 286.956C1811.89 291.811 1802.62 294.238 1789.82 294.238C1777.02 294.238 1766.21 290.045 1757.39 281.66C1749 272.833 1744.81 262.903 1744.81 251.87C1744.81 240.395 1746.13 229.362 1748.78 218.77H1773.94C1777.02 211.267 1778.57 204.206 1778.57 197.586Z" fill="#0BB14B"/>
    <path d="M1382.66 454.442V405.454C1382.66 324.69 1378.69 273.716 1370.75 252.532C1361.92 228.259 1349.34 213.253 1333.01 207.516C1323.74 203.985 1312.49 202.22 1299.25 202.22C1286.01 202.22 1274.54 203.985 1264.83 207.516C1255.56 211.047 1247.83 217.225 1241.66 226.052C1235.48 234.879 1230.4 244.147 1226.43 253.856C1222.9 263.565 1220.03 277.247 1217.82 294.9C1215.18 320.497 1213.85 358.231 1213.85 408.102V455.766C1213.85 509.609 1215.84 548.005 1219.81 570.954C1224.22 593.462 1229.52 609.571 1235.7 619.28C1249.38 640.905 1270.56 651.718 1299.25 651.718C1334.12 651.718 1356.62 637.154 1366.77 608.026C1377.37 578.457 1382.66 527.262 1382.66 454.442ZM1297.93 665.62C1224.22 665.62 1169.06 645.76 1132.43 606.04C1096.24 565.879 1078.14 508.064 1078.14 432.596C1078.14 356.687 1097.56 297.107 1136.4 253.856C1175.68 210.164 1231.06 188.318 1302.56 188.318C1374.06 188.318 1427.9 209.061 1464.09 250.546C1500.72 291.59 1519.03 350.067 1519.03 425.976C1519.03 501.885 1500.5 560.803 1463.43 602.73C1426.8 644.657 1371.63 665.62 1297.93 665.62Z" fill="#0BB14B"/>
    <path d="M222.976 0L320.787 55.6689H320.786L302.405 45.208L251.654 74.1367C199.234 101.558 163.46 156.46 163.46 219.718C163.46 310.398 236.971 383.908 327.651 383.908C333.603 383.908 339.48 383.588 345.268 382.971C321.949 411.322 307.948 447.625 307.948 487.199C307.948 527.733 322.638 564.836 346.982 593.477C346.928 593.412 346.872 593.349 346.817 593.284L287.724 626.958C236.474 654.742 201.672 709.007 201.672 771.399C201.672 785.412 203.429 799.015 206.732 812H46C20.5949 812 0 791.405 0 766V46C0 20.5949 20.5949 0 46 0H222.976ZM365.863 632.285C442.694 632.285 504.978 694.569 504.979 771.399C504.979 785.524 502.871 799.156 498.958 812H232.77C228.856 799.156 226.749 785.524 226.749 771.399C226.749 694.569 289.033 632.285 365.863 632.285ZM646.971 771.58L575.872 812H524.994C528.298 799.015 530.055 785.412 530.055 771.399C530.055 743.311 522.998 716.871 510.566 693.752L646.971 771.58ZM717.812 812H626.634L672.304 786.034L717.812 812ZM812 766C812 791.405 791.405 812 766 812C766.699 812 767.394 811.981 768.086 811.95L485.173 650.879C510.988 648.852 535.123 640.853 556.201 628.266L812 482.536V766ZM472.14 348.085C548.97 348.085 611.255 410.369 611.255 487.199C611.255 564.03 548.971 626.314 472.14 626.314C395.309 626.314 333.025 564.03 333.025 487.199C333.026 410.369 395.309 348.085 472.14 348.085ZM812 453.665L616.852 564.831C629.278 541.716 636.331 515.281 636.331 487.199C636.331 398.517 566.024 326.258 478.108 323.116L812 133.083V453.665ZM327.651 80.6025C404.482 80.6026 466.765 142.887 466.766 219.718C466.765 296.549 404.482 358.832 327.651 358.832C250.821 358.832 188.537 296.549 188.537 219.718C188.537 142.887 250.821 80.6025 327.651 80.6025ZM766 0C791.405 0 812 20.5949 812 46V104.229L472.221 297.613C484.736 274.435 491.843 247.907 491.843 219.718C491.843 157.306 457.02 103.026 405.743 75.25L273.57 0H766Z" fill="#0BB14B"/>
</svg>
