<svg width="812" height="812" viewBox="0 0 812 812" fill="none" xmlns="http://www.w3.org/2000/svg">
    <path d="M222.976 0L320.787 55.6689H320.786L302.405 45.208L251.654 74.1367C199.234 101.558 163.46 156.46 163.46 219.718C163.46 310.398 236.971 383.908 327.651 383.908C333.603 383.908 339.48 383.588 345.268 382.971C321.949 411.322 307.948 447.625 307.948 487.199C307.948 527.733 322.638 564.836 346.982 593.477C346.928 593.412 346.872 593.349 346.817 593.284L287.724 626.958C236.474 654.742 201.672 709.007 201.672 771.399C201.672 785.412 203.429 799.015 206.732 812H46C20.5949 812 0 791.405 0 766V46C0 20.5949 20.5949 0 46 0H222.976ZM365.863 632.285C442.694 632.285 504.978 694.569 504.979 771.399C504.979 785.524 502.871 799.156 498.958 812H232.77C228.856 799.156 226.749 785.524 226.749 771.399C226.749 694.569 289.033 632.285 365.863 632.285ZM646.971 771.58L575.872 812H524.994C528.298 799.015 530.055 785.412 530.055 771.399C530.055 743.311 522.998 716.871 510.566 693.752L646.971 771.58ZM717.812 812H626.634L672.304 786.034L717.812 812ZM812 766C812 791.405 791.405 812 766 812C766.699 812 767.394 811.981 768.086 811.95L485.173 650.879C510.988 648.852 535.123 640.853 556.201 628.266L812 482.536V766ZM472.14 348.085C548.97 348.085 611.255 410.369 611.255 487.199C611.255 564.03 548.971 626.314 472.14 626.314C395.309 626.314 333.025 564.03 333.025 487.199C333.026 410.369 395.309 348.085 472.14 348.085ZM812 453.665L616.852 564.831C629.278 541.716 636.331 515.281 636.331 487.199C636.331 398.517 566.024 326.258 478.108 323.116L812 133.083V453.665ZM327.651 80.6025C404.482 80.6026 466.765 142.887 466.766 219.718C466.765 296.549 404.482 358.832 327.651 358.832C250.821 358.832 188.537 296.549 188.537 219.718C188.537 142.887 250.821 80.6025 327.651 80.6025ZM766 0C791.405 0 812 20.5949 812 46V104.229L472.221 297.613C484.736 274.435 491.843 247.907 491.843 219.718C491.843 157.306 457.02 103.026 405.743 75.25L273.57 0H766Z" fill="black"/>
</svg>
