<svg width="1000" height="1000" viewBox="0 0 1000 1000" fill="none" xmlns="http://www.w3.org/2000/svg">
    <path d="M905.24 0.0078125C957.688 0.671975 1000 43.3948 1000 96V904L999.992 905.24C999.333 957.275 957.275 999.333 905.24 999.992L904 1000H96L94.7588 999.992C42.7244 999.333 0.666743 957.275 0.0078125 905.24L0 904V96C2.17118e-06 42.9807 42.9807 2.17092e-06 96 0H904L905.24 0.0078125ZM96 21C54.5787 21 21 54.5787 21 96V904C21.0001 945.421 54.5787 979 96 979H250.431C249.07 969.529 248.365 959.846 248.365 949.999C248.366 873.167 291.217 806.343 354.324 772.124L427.114 730.645C397.255 695.405 379.248 649.805 379.248 599.999C379.248 551.264 396.491 506.557 425.206 471.643C418.079 472.403 410.841 472.794 403.512 472.794C291.837 472.794 201.306 382.263 201.306 270.588C201.306 192.673 245.375 125.053 309.945 91.2881L372.422 55.6748L311.498 21H96ZM450.57 778.676C355.951 778.676 279.248 855.38 279.247 949.999C279.247 959.884 280.086 969.573 281.694 979H619.447C621.055 969.573 621.895 959.884 621.895 949.999C621.894 855.38 545.189 778.676 450.57 778.676ZM628.497 853.852C643.982 882.447 652.776 915.196 652.776 949.999C652.776 959.846 652.071 969.529 650.71 979H746.143L797.64 949.724L628.497 853.852ZM808.655 979H849.292L828.942 967.466L808.655 979ZM684.976 773.727C659.112 789.172 629.511 799.007 597.851 801.548L910.841 978.691C949.056 975.236 979 943.115 979 904V606.219L684.976 773.727ZM581.453 428.676C486.834 428.676 410.13 505.38 410.13 599.999C410.13 694.618 486.834 771.323 581.453 771.323C676.072 771.323 752.777 694.618 752.777 599.999C752.777 505.38 676.072 428.676 581.453 428.676ZM588.808 397.925C697.076 401.796 783.659 490.786 783.659 599.999C783.659 634.582 774.973 667.136 759.67 695.604L979 570.662V175.847L588.808 397.925ZM403.512 99.2637C308.893 99.2637 232.189 175.969 232.188 270.588C232.189 365.207 308.892 441.911 403.512 441.911C498.131 441.911 574.835 365.207 574.835 270.588C574.835 175.969 498.131 99.264 403.512 99.2637ZM499.714 92.6904C562.845 126.902 605.718 193.738 605.718 270.588C605.718 305.304 596.966 337.976 581.553 366.521L979 140.312V96C979 54.5787 945.421 21.0001 904 21H373.794L499.714 92.6904Z" fill="#0BB14B"/>
</svg>
