<svg width="2896" height="519" viewBox="0 0 2896 519" fill="none" xmlns="http://www.w3.org/2000/svg">
    <path d="M2503.43 48.3262H2698.06C2764.7 48.3262 2814.35 58.0355 2847.01 77.4542C2879.67 96.4315 2896 130.635 2896 180.064C2896 234.79 2876.14 272.524 2836.42 293.266C2799.34 312.244 2747.49 321.732 2680.85 321.732H2675.55V499.148H2758.3V511.726H2503.43V499.148H2546.46V60.9042H2503.43V48.3262ZM2675.55 60.9042V309.154H2689.45C2715.93 309.154 2734.25 300.107 2744.4 282.012C2754.55 263.918 2759.62 234.569 2759.62 193.966V162.19C2759.62 124.677 2754.77 98.4175 2745.06 83.4122C2735.79 68.4069 2718.58 60.9042 2693.42 60.9042H2675.55Z" fill="white"/>
    <path d="M2102.49 378.002L2157.44 187.346L2117.72 60.9042H2079.98V48.3262H2285.2V60.9042H2246.15L2344.78 374.03L2424.22 60.9042H2357.36V48.3262H2489.76V60.9042H2446.07L2324.26 518.346H2265.34L2167.37 219.122L2081.31 518.346H2023.71L1856.89 60.9042H1825.78V48.3262H2040.93V60.9042H1994.59L2102.49 378.002Z" fill="white"/>
    <path d="M1600.99 417.06V208.53H1564.58V196.614H1600.99V111.216L1724.12 80.7642V196.614H1810.18V208.53H1724.12V431.624C1724.12 452.367 1726.11 467.593 1730.08 477.302C1734.49 487.011 1743.32 491.866 1756.56 491.866C1769.8 491.866 1781.27 485.246 1790.98 472.006C1801.13 458.766 1807.75 440.671 1810.84 417.722L1822.1 419.046C1818.57 449.498 1808.86 473.772 1792.97 491.866C1777.08 509.52 1750.82 518.346 1714.19 518.346C1677.56 518.346 1649.54 511.064 1630.12 496.5C1610.7 481.936 1600.99 455.456 1600.99 417.06Z" fill="white"/>
    <path d="M1400.65 518.346C1343.72 518.346 1300.91 503.782 1272.22 474.654C1243.98 445.085 1229.86 404.262 1229.86 352.184C1229.86 299.666 1245.74 259.504 1277.52 231.7C1309.74 203.896 1350.56 189.994 1399.99 189.994C1500.17 189.994 1548.28 240.306 1544.31 340.93H1357.62V366.748C1357.62 409.999 1363.14 442.657 1374.17 464.724C1385.21 486.791 1404.4 497.824 1431.77 497.824C1482.96 497.824 1516.5 470.462 1532.39 415.736L1544.31 417.722C1535.92 449.498 1520.7 474.213 1498.63 491.866C1477 509.52 1444.34 518.346 1400.65 518.346ZM1358.28 327.69H1426.47V295.252C1426.47 259.504 1424.26 235.231 1419.85 222.432C1415.88 209.192 1407.49 202.572 1394.69 202.572C1382.34 202.572 1373.07 209.633 1366.89 223.756C1361.15 237.437 1358.28 261.269 1358.28 295.252V327.69Z" fill="white"/>
    <path d="M954.733 518.346V399.848H962.677C974.152 438.244 989.598 465.165 1009.02 480.612C1028.44 496.059 1052.71 503.782 1081.84 503.782C1126.85 503.782 1149.36 489.439 1149.36 460.752C1149.36 448.395 1143.84 439.127 1132.81 432.948C1115.6 423.239 1093.53 415.736 1066.61 410.44C1036.6 402.496 1011.44 391.904 991.143 378.664C966.87 362.776 954.733 337.62 954.733 303.196C954.733 268.772 965.325 241.409 986.509 221.108C1007.69 200.365 1035.94 189.994 1071.25 189.994C1092.87 189.994 1115.16 195.069 1138.11 205.22C1146.49 208.751 1152.89 210.516 1157.31 210.516C1161.72 210.516 1165.47 208.971 1168.56 205.882C1171.65 202.793 1175.4 197.055 1179.81 188.67H1187.1V289.956H1179.15C1156.64 232.583 1121.78 203.896 1074.56 203.896C1053.81 203.896 1038.37 207.647 1028.22 215.15C1018.06 222.211 1012.99 231.259 1012.99 242.292C1012.99 248.912 1014.53 254.208 1017.62 258.18C1020.71 261.711 1023.14 264.359 1024.91 266.124C1026.67 267.889 1029.54 269.875 1033.51 272.082C1037.48 273.847 1040.79 275.392 1043.44 276.716C1046.09 277.599 1050.06 278.923 1055.36 280.688C1061.09 282.453 1065.29 283.557 1067.94 283.998C1097.95 291.501 1119.57 298.121 1132.81 303.858C1146.05 309.154 1158.63 315.774 1170.55 323.718C1194.82 340.489 1206.96 367.631 1206.96 405.144C1206.96 442.216 1195.92 470.461 1173.86 489.88C1151.79 508.857 1121.56 518.346 1083.16 518.346C1055.8 518.346 1029.32 511.947 1003.72 499.148C998.425 495.617 994.232 493.852 991.143 493.852C981.434 493.852 971.945 502.017 962.677 518.346H954.733Z" fill="white"/>
    <path d="M918.225 35.086C918.225 19.198 909.84 11.254 893.069 11.254C876.298 11.254 865.265 17.6534 859.969 30.452C854.673 42.8093 852.025 62.89 852.025 90.694V196.614H939.409V208.53H852.025V499.81H932.789V511.726H692.483V499.81H728.893V208.53H634.227V499.81H667.327V511.726H474.685V499.81H511.095V208.53H472.699V196.614H511.095V195.29C511.095 75.2474 563.834 15.226 669.313 15.226C713.888 15.226 744.781 29.5693 761.993 58.256C790.238 19.4187 831.944 0 887.111 0C924.624 0 951.546 7.50268 967.875 22.508C984.204 37.072 992.369 54.0633 992.369 73.482C992.369 92.9007 987.294 107.465 977.143 117.174C966.992 126.883 953.532 131.738 936.761 131.738C919.99 131.738 906.971 127.545 897.703 119.16C888.876 110.333 884.463 100.403 884.463 89.37C884.463 77.8953 885.787 66.862 888.435 56.27H913.591C916.68 48.7674 918.225 41.706 918.225 35.086ZM700.427 50.312C700.427 34.424 692.042 26.48 675.271 26.48C658.5 26.48 647.467 32.8793 642.171 45.678C636.875 58.0353 634.227 78.116 634.227 105.92V196.614H728.893V193.966L739.485 139.682C733.748 144.537 724.48 146.964 711.681 146.964C698.882 146.964 688.07 142.771 679.243 134.386C670.858 125.559 666.665 115.629 666.665 104.596C666.665 93.1214 667.989 82.088 670.637 71.496H695.793C698.882 63.9934 700.427 56.932 700.427 50.312Z" fill="white"/>
    <path d="M304.52 307.168V258.18C304.52 177.416 300.548 126.442 292.604 105.258C283.777 80.9846 271.199 65.9793 254.87 60.2419C245.602 56.7113 234.348 54.9459 221.108 54.9459C207.868 54.9459 196.393 56.7113 186.684 60.2419C177.416 63.7726 169.693 69.9513 163.514 78.7779C157.335 87.6046 152.26 96.8726 148.288 106.582C144.757 116.291 141.889 129.973 139.682 147.626C137.034 173.223 135.71 210.957 135.71 260.828V308.492C135.71 362.335 137.696 400.731 141.668 423.68C146.081 446.188 151.377 462.297 157.556 472.006C171.237 493.631 192.421 504.444 221.108 504.444C255.973 504.444 278.481 489.88 288.632 460.752C299.224 431.183 304.52 379.988 304.52 307.168ZM219.784 518.346C146.081 518.346 90.9147 498.486 54.284 458.766C18.0947 418.605 0 360.79 0 285.322C0 209.413 19.4187 149.833 58.256 106.582C97.5347 62.8899 152.922 41.0439 224.418 41.0439C295.914 41.0439 349.757 61.7866 385.946 103.272C422.577 144.316 440.892 202.793 440.892 278.702C440.892 354.611 422.356 413.529 385.284 455.456C348.653 497.383 293.487 518.346 219.784 518.346Z" fill="white"/>
</svg>
